# xmcd CD database file
#
# Track frame offsets:
#	183
#	10045
#	68995
#	93173
#	119198
#	158333
#	185775
#	211418
#	232160
#	256613
#	278470
#
# Disc length: 4067 seconds
#
# Revision: 0
# Processed by: cddbd v1.5.2PL0 Copyright (c) Steve Scherf et al.
# Submitted via: CDex 1.51
#
DISCID=900fe10b
DTITLE=G. Csik - A. Queen - J. Woode - A. Zehender - At The Palace
DYEAR=1900
DGENRE=Jazz
TTITLE0=J. Mayer, R. Wolfekahn, I. Ceasar - Crazy Rhythm
TTITLE1=Duke Ellington Medley (Do nothing till you hear from me, What am I here for, C jam blues, Caravan)
TTITLE2=E. Garner - Misty
TTITLE3=J.B. Woode - Night Life
TTITLE4=var. - Georgia On My Mind and Sweet Georgia Brown
TTITLE5=G. Gershwin - How Long Has It Been going On
TTITLE6=G. Csik - Ballad For Beatrix
TTITLE7=var. - Moonlight In Vermont and Stars Fell On Alabama
TTITLE8=B. Strayhorn - Lush Life
TTITLE9=B. de Vorzon, P. Botkin Jr. - Nadia's Theme
TTITLE10=G. Gershwin - Summertime
EXTD=
EXTT0=
EXTT1=
EXTT2=
EXTT3=
EXTT4=
EXTT5=
EXTT6=
EXTT7=
EXTT8=
EXTT9=
EXTT10=
PLAYORDER=
